<svg xmlns="http://www.w3.org/2000/svg" width="112.5" height="97.5">
    <path stroke="#009FE2" fill="none" d="M54.5 22C64.165 22 72 29.835 72 39.5S64.165 57 54.5 57 37 49.165 37 39.5 44.835 22 54.5 22z"/>
    <path stroke="#009FE2" fill="none" d="M54.5 24C63.06 24 70 30.94 70 39.5 70 48.06 63.06 55 54.5 55 45.939 55 39 48.06 39 39.5 39 30.94 45.939 24 54.5 24zM38 40h-1V18.687h1V40zM72 39.312h-1V18h1v21.312z"/>
    <path stroke="#2F3B4C" fill="none" d="M52 22v-1.5a1.5 1.5 0 1 1 3 0V24"/>
    <path stroke="#2F3B4C" fill="none" d="M57 25v1.5a1.5 1.5 0 0 1-3 0V23M52 54v-1.5a1.5 1.5 0 1 1 3 0V56"/>
    <path stroke="#2F3B4C" fill="none" d="M57 57v1.5a1.5 1.5 0 0 1-3 0V55M72 36h1.5a1.5 1.5 0 1 1 0 3H70"/>
    <path stroke="#2F3B4C" fill="none" d="M69 41h-1.5a1.5 1.5 0 1 1 0-3H71M40 36h1.5a1.5 1.5 0 1 1 0 3H38"/>
    <path stroke="#2F3B4C" fill="none" d="M37 41h-1.5a1.5 1.5 0 1 1 0-3H39"/>
    <text font-family="HelveticaNeueCyr" fill="#2F3B4C" font-size="10" y="-128.57"> <tspan dy="-1.6em">60 Oc - 450 Oc (450 Oc)</tspan><tspan x="0" dy="1.6em">25 m * 320 μm * 1μm</tspan>
</text>
    <text font-family="Roboto" fill="#2F3B4C" opacity=".502" font-size="10" x="6" y="-131.27">Agilent 19091Q-002</text>
</svg>
