<svg xmlns="http://www.w3.org/2000/svg" width="763" height="223">
    <path stroke="#009FE2" fill="none" d="M738.5 173.5h-12v-5h12"/>
    <path stroke="#009FE2" fill="none" d="M737.5 169.5v-8h5v37h-5v-26"/>
    <path stroke="#009FE2" fill="none" d="M734.5 165.5h11v30h-11v-30z"/>
    <path stroke="#FFF" fill="none" d="M734.5 169.5h1v3h-1v-3zM741.5 165.5v1h-3v-1h3zM741.5 194.5v1h-3v-1h3z"/>
    <path stroke="#009FE2" fill="none" d="M735.5 158.5h9v4h-9v-4z"/>
    <path stroke="#C6000E" fill="none" d="M739.5 162.5h1v38h-1v-38z"/>
    <path stroke="#C6000E" fill="none" d="M740.5 170.5v1h-16v-1h16z"/>
    <text font-family="Helvetica" fill="#2F3B4C" font-weight="bold" font-size="10" x="724.5" y="11.091">SS (H2)</text>
    <text font-family="Roboto" fill="#2F3B4C" opacity=".502" font-size="10" x="716.5" y="7.23">Front Inlet</text>
</svg>
